<?xml version="1.0" encoding="utf-8"?>
<!-- Generator: Adobe Illustrator 17.0.0, SVG Export Plug-In . SVG Version: 6.00 Build 0)  -->
<!DOCTYPE svg PUBLIC "-//W3C//DTD SVG 1.1//EN" "http://www.w3.org/Graphics/SVG/1.1/DTD/svg11.dtd">
<svg version="1.1" id="Layer_1" xmlns="http://www.w3.org/2000/svg" xmlns:xlink="http://www.w3.org/1999/xlink" x="0px" y="0px"
	 width="283.701px" height="324.018px" viewBox="0 0 283.701 324.018" enable-background="new 0 0 283.701 324.018"
	 xml:space="preserve">
<g>
	<linearGradient id="SVGID_1_" gradientUnits="userSpaceOnUse" x1="143.6716" y1="159.536" x2="240.1994" y2="159.536">
		<stop  offset="0.3729" style="stop-color:#406E82"/>
		<stop  offset="0.4778" style="stop-color:#325261"/>
		<stop  offset="0.5913" style="stop-color:#213843"/>
	</linearGradient>
	<path fill="url(#SVGID_1_)" d="M240.199,145.11c-0.015-0.914-0.627-1.825-1.835-2.523l-42.181-24.353
		c-2.437-1.406-6.374-1.406-8.796,0.001l-41.906,24.353c-1.276,0.742-1.876,1.726-1.8,2.697h-0.008v28.949h0.025
		c0.119,0.821,0.723,1.624,1.811,2.252l42.182,24.353c2.436,1.407,6.375,1.407,8.796,0l41.907-24.353
		c1.158-0.674,1.758-1.546,1.804-2.428h0.005L240.199,145.11L240.199,145.11z"/>
	<g>
		<g>
			<linearGradient id="SVGID_2_" gradientUnits="userSpaceOnUse" x1="143.6723" y1="144.6958" x2="240.1996" y2="144.6958">
				<stop  offset="0" style="stop-color:#60A9D0"/>
				<stop  offset="0.1757" style="stop-color:#5CA0C4"/>
				<stop  offset="1" style="stop-color:#497D97"/>
			</linearGradient>
			<path fill="url(#SVGID_2_)" d="M238.364,142.148l-42.181-24.353c-2.437-1.407-6.374-1.407-8.796,0.001L145.48,142.15
				c-2.421,1.407-2.409,3.687,0.027,5.094l42.182,24.353c2.436,1.406,6.375,1.406,8.796,0l41.907-24.354
				C240.814,145.835,240.8,143.555,238.364,142.148"/>
		</g>
	</g>
	<path fill-rule="evenodd" clip-rule="evenodd" fill="#78A344" d="M201.39,174.501"/>
	<linearGradient id="SVGID_3_" gradientUnits="userSpaceOnUse" x1="143.6716" y1="124.0947" x2="240.1994" y2="124.0947">
		<stop  offset="0.3729" style="stop-color:#406E82"/>
		<stop  offset="0.4778" style="stop-color:#325261"/>
		<stop  offset="0.5913" style="stop-color:#213843"/>
	</linearGradient>
	<path fill="url(#SVGID_3_)" d="M240.199,109.668c-0.015-0.914-0.627-1.825-1.835-2.523l-42.181-24.353
		c-2.437-1.406-6.374-1.406-8.796,0.001l-41.906,24.353c-1.276,0.742-1.876,1.726-1.8,2.697h-0.008v28.949h0.025
		c0.119,0.821,0.723,1.624,1.811,2.252l42.182,24.353c2.436,1.407,6.375,1.407,8.796,0l41.907-24.353
		c1.158-0.674,1.758-1.546,1.804-2.429h0.005L240.199,109.668L240.199,109.668z"/>
	<g>
		<g>
			<linearGradient id="SVGID_4_" gradientUnits="userSpaceOnUse" x1="143.6723" y1="109.2544" x2="240.1996" y2="109.2544">
				<stop  offset="0" style="stop-color:#60A9D0"/>
				<stop  offset="0.1757" style="stop-color:#5CA0C4"/>
				<stop  offset="1" style="stop-color:#497D97"/>
			</linearGradient>
			<path fill="url(#SVGID_4_)" d="M238.364,106.706l-42.181-24.353c-2.437-1.407-6.374-1.407-8.796,0.001l-41.906,24.354
				c-2.421,1.407-2.409,3.687,0.027,5.094l42.182,24.353c2.436,1.406,6.375,1.406,8.796,0l41.907-24.354
				C240.814,110.394,240.8,108.114,238.364,106.706"/>
		</g>
	</g>
	<g>
		<g enable-background="new    ">
			<defs>
				<polygon id="SVGID_5_" enable-background="new    " points="147.468,170.036 147.487,163.25 170.657,176.628 170.637,183.414 
									"/>
			</defs>
			<clipPath id="SVGID_6_">
				<use xlink:href="#SVGID_5_"  overflow="visible"/>
			</clipPath>
			<g clip-path="url(#SVGID_6_)">
				<path fill="#FFFFFF" d="M153.073,166.476l-1.737-1.003l-1.062,4.612l-1.032-5.821l-1.756-1.014l-0.019,6.632l1.124,0.649
					l0.013-4.483c0-0.132,0.001-0.308-0.005-0.547c0.001-0.235,0.001-0.411,0.002-0.536l1.07,6.188l1.175,0.678l1.107-4.931
					c0,0.125-0.001,0.301-0.008,0.532c-0.001,0.235-0.001,0.411-0.002,0.543l-0.013,4.483l1.124,0.649L153.073,166.476"/>
				<path fill="#FFFFFF" d="M155.662,173.834c-0.153-0.088-0.287-0.21-0.395-0.375c-0.102-0.154-0.159-0.349-0.158-0.562
					c0.001-0.249,0.091-0.381,0.27-0.395c0.102-0.007,0.275,0.034,0.511,0.119l0.256,0.096c0.128,0.044,0.224,0.07,0.3,0.085
					c0.07,0.011,0.141,0.008,0.217,0.001l-0.001,0.477c-0.014,0.425-0.117,0.66-0.328,0.7
					C156.128,174.023,155.904,173.974,155.662,173.834 M155.98,169.771c-0.721-0.417-1.226-0.495-1.528-0.235
					c-0.186,0.172-0.289,0.465-0.316,0.876l1.079,0.623c0.026-0.176,0.078-0.293,0.155-0.359c0.115-0.08,0.307-0.05,0.569,0.101
					c0.243,0.14,0.421,0.287,0.542,0.431c0.128,0.147,0.185,0.32,0.184,0.525c0,0.161-0.077,0.242-0.244,0.219
					c-0.089-0.008-0.236-0.048-0.441-0.137l-0.383-0.17c-0.434-0.185-0.767-0.274-0.991-0.256c-0.409,0.036-0.615,0.35-0.617,0.959
					c-0.001,0.462,0.125,0.895,0.38,1.292c0.255,0.404,0.574,0.713,0.963,0.938c0.306,0.177,0.575,0.251,0.818,0.237
					c0.205-0.021,0.384-0.08,0.538-0.182c0.006,0.114,0.019,0.216,0.031,0.312c0.012,0.095,0.038,0.206,0.069,0.319l1.213,0.7
					l0.001-0.183c-0.07-0.085-0.127-0.169-0.166-0.25c-0.032-0.077-0.057-0.202-0.063-0.374c-0.006-0.224-0.005-0.415-0.005-0.576
					l0.006-2.245c0.002-0.594-0.182-1.105-0.546-1.528C156.867,170.386,156.453,170.043,155.98,169.771"/>
				<path fill="#FFFFFF" d="M161.318,172.852c-0.351-0.203-0.639-0.273-0.869-0.208c-0.128,0.036-0.263,0.142-0.41,0.307
					l0.002-0.712l-1.079-0.623l-0.014,4.894l1.117,0.645l0.007-2.656c0.001-0.301,0.04-0.528,0.111-0.678
					c0.142-0.293,0.397-0.329,0.774-0.112c0.306,0.177,0.517,0.423,0.625,0.743c0.057,0.173,0.088,0.389,0.088,0.646l-0.008,2.979
					l1.143,0.66l0.009-3.302c0.002-0.616-0.137-1.138-0.418-1.564C162.116,173.445,161.758,173.107,161.318,172.852"/>
				<path fill="#FFFFFF" d="M165.318,173.95l-1.105-0.638l-0.004,1.372l-0.594-0.343l-0.003,0.91l0.594,0.343l-0.009,3.023
					c-0.001,0.308,0.062,0.572,0.19,0.793c0.179,0.317,0.504,0.608,0.981,0.884c0.032,0.018,0.064,0.037,0.097,0.055l0.53,0.284
					l0.003-0.961l-0.115-0.059l-0.109-0.063c-0.223-0.129-0.357-0.228-0.402-0.306c-0.045-0.077-0.07-0.217-0.069-0.415l0.007-2.597
					l0.696,0.402l0.003-0.91l-0.696-0.402L165.318,173.95"/>
				<path fill="#FFFFFF" d="M168.291,181.126c-0.153-0.088-0.281-0.206-0.389-0.372c-0.108-0.158-0.159-0.349-0.158-0.562
					c0.001-0.249,0.091-0.381,0.263-0.399c0.102-0.007,0.275,0.034,0.518,0.123l0.249,0.092c0.128,0.044,0.23,0.074,0.3,0.085
					c0.077,0.015,0.147,0.011,0.217,0.001l-0.001,0.477c-0.008,0.429-0.117,0.66-0.322,0.703
					C168.763,181.318,168.54,181.27,168.291,181.126 M168.615,177.066c-0.722-0.417-1.233-0.499-1.528-0.235
					c-0.186,0.172-0.296,0.461-0.322,0.872l1.079,0.623c0.026-0.176,0.084-0.29,0.161-0.355c0.115-0.08,0.301-0.054,0.569,0.101
					c0.236,0.136,0.421,0.287,0.542,0.431s0.185,0.32,0.184,0.525c0,0.161-0.084,0.238-0.244,0.219
					c-0.09-0.008-0.236-0.048-0.447-0.141l-0.383-0.17c-0.434-0.185-0.76-0.27-0.984-0.252c-0.409,0.036-0.615,0.35-0.617,0.959
					c-0.001,0.462,0.125,0.895,0.38,1.292c0.248,0.401,0.574,0.713,0.957,0.934c0.306,0.177,0.581,0.255,0.824,0.241
					c0.198-0.025,0.378-0.083,0.538-0.182c0.006,0.114,0.019,0.216,0.031,0.312c0.012,0.095,0.031,0.202,0.069,0.319l1.213,0.7
					l0.001-0.183c-0.077-0.088-0.127-0.169-0.166-0.25c-0.038-0.081-0.057-0.202-0.063-0.374c-0.006-0.224-0.012-0.418-0.011-0.58
					l0.006-2.245c0.002-0.594-0.176-1.101-0.539-1.524C169.503,177.681,169.081,177.335,168.615,177.066"/>
			</g>
		</g>
	</g>
	<g>
		<g enable-background="new    ">
			<defs>
				<polygon id="SVGID_7_" enable-background="new    " points="154.734,108.085 179.028,93.966 195.692,103.588 171.397,117.707 
									"/>
			</defs>
			<clipPath id="SVGID_8_">
				<use xlink:href="#SVGID_7_"  overflow="visible"/>
			</clipPath>
			<g clip-path="url(#SVGID_8_)">
				<path fill="#FFFFFF" d="M187.226,98.7c-3.263-1.884-6.734-2.492-10.428-1.825c-1.933,0.347-3.971,1.095-6.109,2.249l4.648,2.684
					c1.415-0.756,2.583-1.228,3.505-1.416c1.602-0.324,3.131-0.066,4.586,0.774c1.066,0.616,1.547,1.283,1.437,2.005
					c-0.11,0.723-0.673,1.382-1.694,1.976c-1.256,0.73-2.915,1.117-4.964,1.154c-1.324,0.022-3.876-0.151-7.646-0.512
					c-4.343-0.42-7.658-0.358-9.952,0.184c-2.142,0.424-4.098,1.132-5.875,2.112l16.664,9.621l4.18-2.429l-10.624-6.134
					c0.801-0.118,1.622-0.159,2.437-0.122c0.821,0.033,2.254,0.155,4.291,0.354l3.273,0.324c2.751,0.273,4.934,0.343,6.569,0.214
					c2.468-0.184,4.59-0.796,6.379-1.836c2.334-1.357,3.446-2.89,3.347-4.593C191.138,101.782,189.799,100.185,187.226,98.7"/>
			</g>
		</g>
	</g>
</g>
<g>
	<polyline opacity="0.902" fill="#838383" points="227.968,178.336 227.682,178.171 227.676,180.301 227.962,180.466 
		227.968,178.336 	"/>
	<polyline opacity="0.902" fill="#838383" points="227.978,174.891 227.692,174.725 227.683,177.842 227.969,178.007 
		227.978,174.891 	"/>
	<polyline opacity="0.902" fill="#838383" points="262.224,198.114 261.938,197.948 261.932,200.078 262.218,200.244 
		262.224,198.114 	"/>
	<polyline opacity="0.902" fill="#838383" points="262.234,194.668 261.948,194.503 261.939,197.62 262.225,197.785 
		262.234,194.668 	"/>
	<polyline opacity="0.902" fill="#838383" points="271.621,217.376 271.335,217.21 271.329,219.34 271.615,219.505 271.621,217.376 
			"/>
	<polyline opacity="0.902" fill="#838383" points="271.633,213.157 271.347,212.992 271.336,216.881 271.622,217.047 
		271.633,213.157 	"/>
	<linearGradient id="SVGID_9_" gradientUnits="userSpaceOnUse" x1="223.6244" y1="180.1844" x2="231.1895" y2="187.7496">
		<stop  offset="0" style="stop-color:#60A9D0"/>
		<stop  offset="0.1757" style="stop-color:#5CA0C4"/>
		<stop  offset="1" style="stop-color:#497D97"/>
	</linearGradient>
	<polyline fill="url(#SVGID_9_)" points="230.605,181.992 227.962,180.466 227.676,180.301 225.034,178.775 225.011,186.744 
		229.18,189.151 230.587,188.352 230.605,181.992 	"/>
	<polyline opacity="0.902" fill="#838383" points="227.683,177.842 218.673,172.64 218.666,175.099 218.952,175.264 
		218.958,173.134 227.682,178.171 227.683,177.842 	"/>
	<polyline opacity="0.902" fill="#838383" points="236.98,183.21 227.969,178.007 227.968,178.336 236.69,183.372 236.684,185.502 
		236.973,185.668 236.98,183.21 	"/>
	<polyline opacity="0.9922" fill="#838383" points="227.969,178.007 227.683,177.842 227.682,178.171 227.968,178.336 
		227.969,178.007 	"/>
	<path opacity="0.902" fill="#838383" d="M262.277,179.37l-34.354-19.834l-0.024,8.39c0.091,0.108,0.169,0.249,0.198,0.375
		l0.087,0.344l0.024-8.615l33.781,19.504l-0.023,8.264c0.008,0.023,0.015,0.047,0.021,0.07l0.25,0.993l0.013,0.007L262.277,179.37"
		/>
	<polyline opacity="0.902" fill="#838383" points="261.939,197.62 252.931,192.419 252.924,194.878 253.21,195.043 253.216,192.913 
		261.938,197.948 261.939,197.62 	"/>
	<polyline opacity="0.902" fill="#838383" points="271.236,202.987 262.225,197.785 262.224,198.114 270.948,203.151 
		270.941,205.787 271.227,205.952 271.236,202.987 	"/>
	<polyline opacity="0.9922" fill="#838383" points="262.225,197.785 261.939,197.62 261.938,197.948 262.224,198.114 
		262.225,197.785 	"/>
	<polyline opacity="0.902" fill="#838383" points="271.336,216.881 262.761,211.931 262.754,214.39 263.04,214.555 263.046,212.425 
		271.335,217.21 271.336,216.881 	"/>
	<polyline opacity="0.902" fill="#838383" points="281.065,222.499 271.622,217.047 271.621,217.376 280.778,222.663 
		280.772,224.793 281.059,224.958 281.065,222.499 	"/>
	<polyline opacity="0.9922" fill="#838383" points="271.622,217.047 271.336,216.881 271.335,217.21 271.621,217.376 
		271.622,217.047 	"/>
	<linearGradient id="SVGID_10_" gradientUnits="userSpaceOnUse" x1="232.6325" y1="185.3849" x2="240.1998" y2="192.9521">
		<stop  offset="0" style="stop-color:#60A9D0"/>
		<stop  offset="0.1757" style="stop-color:#5CA0C4"/>
		<stop  offset="1" style="stop-color:#497D97"/>
	</linearGradient>
	<polyline fill="url(#SVGID_10_)" points="239.616,187.194 236.973,185.668 236.684,185.502 234.042,183.976 234.019,191.945 
		238.19,194.353 239.597,193.555 239.616,187.194 	"/>
	<linearGradient id="SVGID_11_" gradientUnits="userSpaceOnUse" x1="214.6137" y1="174.9822" x2="222.1789" y2="182.5474">
		<stop  offset="0" style="stop-color:#60A9D0"/>
		<stop  offset="0.1757" style="stop-color:#5CA0C4"/>
		<stop  offset="1" style="stop-color:#497D97"/>
	</linearGradient>
	<polyline fill="url(#SVGID_11_)" points="221.594,176.79 218.952,175.264 218.666,175.099 216.023,173.573 216,181.542 
		220.169,183.949 221.576,183.15 221.594,176.79 	"/>
	<linearGradient id="SVGID_12_" gradientUnits="userSpaceOnUse" x1="276.7205" y1="224.6761" x2="284.2857" y2="232.2413">
		<stop  offset="0" style="stop-color:#60A9D0"/>
		<stop  offset="0.1757" style="stop-color:#5CA0C4"/>
		<stop  offset="1" style="stop-color:#497D97"/>
	</linearGradient>
	<polyline fill="url(#SVGID_12_)" points="283.701,226.484 281.059,224.958 280.772,224.793 278.13,223.267 278.107,231.236 
		282.276,233.643 283.683,232.844 283.701,226.484 	"/>
	<linearGradient id="SVGID_13_" gradientUnits="userSpaceOnUse" x1="267.7102" y1="219.4736" x2="275.2774" y2="227.0408">
		<stop  offset="0" style="stop-color:#60A9D0"/>
		<stop  offset="0.1757" style="stop-color:#5CA0C4"/>
		<stop  offset="1" style="stop-color:#497D97"/>
	</linearGradient>
	<polyline fill="url(#SVGID_13_)" points="274.693,221.283 271.615,219.505 271.329,219.34 269.119,218.065 269.097,226.034 
		273.268,228.442 274.675,227.643 274.693,221.283 	"/>
	<linearGradient id="SVGID_14_" gradientUnits="userSpaceOnUse" x1="258.7019" y1="214.2731" x2="266.2671" y2="221.8383">
		<stop  offset="0" style="stop-color:#60A9D0"/>
		<stop  offset="0.1757" style="stop-color:#5CA0C4"/>
		<stop  offset="1" style="stop-color:#497D97"/>
	</linearGradient>
	<polyline fill="url(#SVGID_14_)" points="265.683,216.081 263.04,214.555 262.754,214.39 260.111,212.864 260.089,220.833 
		264.257,223.24 265.664,222.441 265.683,216.081 	"/>
	<linearGradient id="SVGID_15_" gradientUnits="userSpaceOnUse" x1="266.9191" y1="205.4117" x2="276.368" y2="214.8606">
		<stop  offset="0" style="stop-color:#60A9D0"/>
		<stop  offset="0.1757" style="stop-color:#5CA0C4"/>
		<stop  offset="1" style="stop-color:#497D97"/>
	</linearGradient>
	<path fill="url(#SVGID_15_)" d="M271.328,206.01l-0.101-0.058l-0.286-0.165l-2.529-1.46c-0.281-0.162-0.506-0.034-0.507,0.289
		l-0.016,5.798c-0.001,0.323,0.223,0.71,0.504,0.872l2.955,1.706l0.286,0.165l3.824,2.207c0.281,0.162,0.506,0.034,0.507-0.289
		l0.013-4.639c0.001-0.323-0.223-0.71-0.504-0.872l-3.532-2.039l-0.25-0.993C271.644,206.333,271.477,206.097,271.328,206.01"/>
	<linearGradient id="SVGID_16_" gradientUnits="userSpaceOnUse" x1="223.3263" y1="167.1812" x2="232.7753" y2="176.6301">
		<stop  offset="0" style="stop-color:#60A9D0"/>
		<stop  offset="0.1757" style="stop-color:#5CA0C4"/>
		<stop  offset="1" style="stop-color:#497D97"/>
	</linearGradient>
	<path fill="url(#SVGID_16_)" d="M227.735,167.78l-2.916-1.683c-0.281-0.162-0.506-0.034-0.507,0.289l-0.016,5.798
		c-0.001,0.323,0.223,0.71,0.504,0.872l2.893,1.67l0.286,0.165l3.885,2.243c0.281,0.162,0.506,0.034,0.507-0.289l0.013-4.639
		c0.001-0.323-0.223-0.71-0.504-0.872l-3.532-2.039l-0.163-0.649l-0.087-0.344c-0.029-0.126-0.107-0.266-0.198-0.375
		C227.847,167.864,227.79,167.812,227.735,167.78"/>
	<linearGradient id="SVGID_17_" gradientUnits="userSpaceOnUse" x1="257.8803" y1="199.9617" x2="265.4475" y2="207.5289">
		<stop  offset="0" style="stop-color:#60A9D0"/>
		<stop  offset="0.1757" style="stop-color:#5CA0C4"/>
		<stop  offset="1" style="stop-color:#497D97"/>
	</linearGradient>
	<polyline fill="url(#SVGID_17_)" points="264.863,201.771 262.218,200.244 261.932,200.078 259.289,198.553 259.267,206.522 
		263.438,208.93 264.845,208.131 264.863,201.771 	"/>
	<linearGradient id="SVGID_18_" gradientUnits="userSpaceOnUse" x1="248.4391" y1="194.5109" x2="256.0063" y2="202.0781">
		<stop  offset="0" style="stop-color:#60A9D0"/>
		<stop  offset="0.1757" style="stop-color:#5CA0C4"/>
		<stop  offset="1" style="stop-color:#497D97"/>
	</linearGradient>
	<polyline fill="url(#SVGID_18_)" points="255.422,196.32 253.21,195.043 252.924,194.878 249.848,193.102 249.826,201.071 
		253.994,203.478 255.404,202.68 255.422,196.32 	"/>
	<linearGradient id="SVGID_19_" gradientUnits="userSpaceOnUse" x1="257.2159" y1="186.7474" x2="266.6648" y2="196.1963">
		<stop  offset="0" style="stop-color:#60A9D0"/>
		<stop  offset="0.1757" style="stop-color:#5CA0C4"/>
		<stop  offset="1" style="stop-color:#497D97"/>
	</linearGradient>
	<path fill="url(#SVGID_19_)" d="M261.624,187.346l-2.916-1.684c-0.281-0.162-0.506-0.034-0.507,0.289l-0.016,5.798
		c-0.001,0.323,0.223,0.71,0.504,0.872l3.259,1.881l0.286,0.165l3.519,2.032c0.281,0.162,0.506,0.034,0.507-0.289l0.013-4.639
		c0.001-0.323-0.223-0.71-0.504-0.872l-3.519-2.032l-0.013-0.007l-0.25-0.993c-0.005-0.023-0.012-0.046-0.021-0.07
		C261.903,187.616,261.757,187.423,261.624,187.346"/>
</g>
<g>
	<g>
		<g>
			<path fill="#A54224" d="M145.586,175.443c-0.204-0.118-0.485-0.19-0.795-0.19l-31.151,0c-0.619-0.001-1.121,0.29-1.119,0.65
				c-0.008,0.019-0.05,0.214,0.282,0.406l4.625,2.67c0.356,0.211,0.36,0.522,0.045,0.735l-18.355,10.654
				c-0.366,0.207-0.934,0.214-1.316,0l-4.427-2.556c-0.297-0.171-0.71-0.167-0.71-0.167c-0.622,0-1.124,0.292-1.119,0.65
				l0.102,18.044c0,0.179,0.126,0.342,0.33,0.46c0.204,0.118,0.486,0.191,0.797,0.191l31.148-0.002
				c0.619,0.001,1.121-0.29,1.119-0.65c0.01-0.018,0.05-0.214-0.282-0.406l-4.625-2.67c-0.356-0.211-0.36-0.523-0.045-0.735
				l18.355-10.654c0.369-0.205,0.937-0.213,1.316,0l4.427,2.556c0.296,0.171,0.71,0.167,0.71,0.167c0.622,0,1.124-0.292,1.119-0.65
				l-0.099-18.042C145.916,175.724,145.79,175.561,145.586,175.443"/>
		</g>
	</g>
	<rect x="113.414" y="194.26" fill="#A54224" width="11.628" height="12.081"/>
	<rect x="112.521" y="169.334" fill="#A54224" width="6.707" height="9.65"/>
	<g>
		<g>
			<path fill="#F36C26" d="M145.586,168.873c-0.204-0.118-0.485-0.19-0.795-0.19l-31.151,0c-0.619-0.001-1.121,0.29-1.119,0.65
				c-0.008,0.019-0.05,0.214,0.282,0.406l4.625,2.67c0.356,0.211,0.36,0.522,0.045,0.735l-18.355,10.654
				c-0.366,0.207-0.934,0.214-1.316,0l-4.427-2.556c-0.297-0.171-0.71-0.167-0.71-0.167c-0.622,0-1.124,0.292-1.119,0.65
				l0.102,18.044c0,0.179,0.126,0.342,0.33,0.46c0.204,0.118,0.486,0.191,0.797,0.191l31.148-0.002
				c0.619,0.002,1.121-0.29,1.119-0.65c0.01-0.018,0.05-0.214-0.282-0.406l-4.625-2.67c-0.356-0.211-0.36-0.523-0.045-0.735
				l18.355-10.654c0.369-0.205,0.937-0.213,1.316,0l4.427,2.556c0.296,0.171,0.71,0.167,0.71,0.167c0.622,0,1.124-0.292,1.119-0.65
				l-0.099-18.042C145.916,169.154,145.79,168.991,145.586,168.873"/>
		</g>
	</g>
</g>
<g opacity="0.5">
	<g>
		<polygon fill="none" points="77.469,202.367 77.824,77.119 245.838,174.122 245.483,299.37 		"/>
		<g>
			<polyline fill="#BEDEF5" points="245.838,174.122 77.824,77.119 77.469,202.367 245.483,299.37 245.838,174.122 			"/>
		</g>
	</g>
</g>
<g>
	<defs>
		<polygon id="SVGID_20_" points="102.436,172.985 130.038,189.976 130.038,215.579 79.66,215.579 79.66,170.12 		"/>
	</defs>
	<clipPath id="SVGID_21_">
		<use xlink:href="#SVGID_20_"  overflow="visible"/>
	</clipPath>
	<g clip-path="url(#SVGID_21_)">
		<g>
			<g>
				<path fill="#A54224" d="M145.538,175.262c-0.204-0.118-0.485-0.19-0.795-0.19l-31.151,0c-0.619-0.001-1.121,0.29-1.119,0.651
					c-0.008,0.019-0.05,0.214,0.282,0.406l4.625,2.67c0.356,0.211,0.36,0.523,0.045,0.735L99.071,190.19
					c-0.366,0.207-0.934,0.214-1.316,0l-4.427-2.556c-0.297-0.171-0.71-0.167-0.71-0.167c-0.622,0-1.124,0.292-1.119,0.651
					l0.102,18.043c0,0.179,0.126,0.342,0.33,0.46c0.204,0.118,0.486,0.191,0.797,0.191l31.148-0.002
					c0.619,0.001,1.121-0.29,1.119-0.65c0.01-0.018,0.05-0.214-0.282-0.406l-4.625-2.67c-0.356-0.211-0.36-0.523-0.045-0.735
					l18.355-10.654c0.369-0.206,0.937-0.213,1.316,0l4.427,2.556c0.296,0.171,0.71,0.167,0.71,0.167c0.622,0,1.124-0.292,1.119-0.65
					l-0.099-18.042C145.869,175.543,145.742,175.38,145.538,175.262"/>
			</g>
		</g>
		<rect x="113.367" y="194.079" fill="#A54224" width="11.628" height="12.081"/>
		<rect x="112.474" y="169.153" fill="#A54224" width="6.707" height="9.65"/>
		<g>
			<g>
				<path fill="#F36C26" d="M145.538,168.692c-0.204-0.118-0.485-0.19-0.795-0.19l-31.151,0c-0.619-0.001-1.121,0.29-1.119,0.65
					c-0.008,0.019-0.05,0.214,0.282,0.406l4.625,2.67c0.356,0.211,0.36,0.522,0.045,0.735L99.071,183.62
					c-0.366,0.207-0.934,0.214-1.316,0l-4.427-2.556c-0.297-0.171-0.71-0.167-0.71-0.167c-0.622,0-1.124,0.292-1.119,0.65
					l0.102,18.044c0,0.179,0.126,0.342,0.33,0.46c0.204,0.118,0.486,0.191,0.797,0.191l31.148-0.002
					c0.619,0.002,1.121-0.29,1.119-0.65c0.01-0.018,0.05-0.214-0.282-0.406l-4.625-2.67c-0.356-0.211-0.36-0.522-0.045-0.735
					l18.355-10.654c0.369-0.205,0.937-0.213,1.316,0l4.427,2.556c0.296,0.171,0.71,0.167,0.71,0.167c0.622,0,1.124-0.292,1.119-0.65
					l-0.099-18.042C145.869,168.973,145.742,168.81,145.538,168.692"/>
			</g>
		</g>
	</g>
</g>
<g>
	<g enable-background="new    ">
		<defs>
			<polygon id="SVGID_22_" enable-background="new    " points="88.567,105.721 88.586,98.92 119.641,116.851 119.621,123.652 			
				"/>
		</defs>
		<clipPath id="SVGID_23_">
			<use xlink:href="#SVGID_22_"  overflow="visible"/>
		</clipPath>
		<g clip-path="url(#SVGID_23_)">
			<polyline fill="#030303" points="93.272,101.626 92.149,100.977 92.135,105.599 89.856,99.654 88.586,98.92 88.567,105.553 
				89.697,106.205 89.711,101.495 92.047,107.562 93.254,108.259 93.272,101.626 			"/>
			<path fill="#030303" d="M95.113,106.386c0.046-0.29,0.142-0.491,0.302-0.582c0.16-0.099,0.377-0.061,0.665,0.105
				c0.262,0.151,0.485,0.368,0.663,0.648s0.273,0.591,0.292,0.94L95.113,106.386 M96.083,104.851
				c-0.626-0.361-1.137-0.436-1.528-0.206c-0.391,0.23-0.591,0.769-0.593,1.62c-0.003,0.902,0.213,1.688,0.646,2.335
				c0.433,0.654,0.93,1.147,1.499,1.475c0.69,0.398,1.227,0.466,1.611,0.21c0.25-0.157,0.385-0.373,0.418-0.648l-1.143-0.66
				c-0.064,0.11-0.141,0.176-0.231,0.205c-0.16,0.062-0.365,0.017-0.62-0.13c-0.236-0.136-0.44-0.313-0.612-0.537
				c-0.28-0.36-0.426-0.79-0.444-1.293l3.109,1.795c0.008-0.422-0.004-0.752-0.036-0.998c-0.05-0.411-0.164-0.815-0.336-1.208
				c-0.191-0.441-0.439-0.827-0.739-1.154C96.792,105.334,96.454,105.065,96.083,104.851"/>
			<path fill="#030303" d="M100.032,105.933l-1.105-0.638l-0.004,1.372l-0.594-0.343l-0.003,0.91l0.594,0.343l-0.009,3.023
				c-0.001,0.301,0.062,0.565,0.183,0.782c0.18,0.318,0.493,0.603,0.949,0.867c0.044,0.025,0.089,0.051,0.136,0.076l0.53,0.284
				l0.003-0.961l-0.115-0.059l-0.109-0.055c-0.223-0.129-0.364-0.239-0.408-0.317c-0.045-0.07-0.063-0.206-0.063-0.411l0.007-2.59
				l0.696,0.402l0.003-0.91l-0.696-0.402L100.032,105.933"/>
			<polyline fill="#030303" points="107.064,111.317 105.896,110.642 105.222,113.795 104.581,109.883 103.451,109.23 
				102.828,112.398 102.167,108.489 100.974,107.8 102.154,113.397 103.316,114.068 104.003,110.886 104.663,114.846 
				105.812,115.51 107.064,111.317 			"/>
			<path fill="#030303" d="M109.582,116.775c-0.326-0.188-0.581-0.468-0.752-0.831c-0.178-0.375-0.266-0.8-0.265-1.292
				s0.092-0.821,0.271-0.982c0.173-0.165,0.429-0.149,0.755,0.039c0.326,0.188,0.574,0.464,0.752,0.831
				c0.172,0.364,0.26,0.797,0.259,1.288c-0.001,0.492-0.092,0.814-0.265,0.986C110.156,116.975,109.907,116.963,109.582,116.775
				 M109.593,112.622c-0.728-0.42-1.278-0.481-1.643-0.17c-0.359,0.314-0.54,0.82-0.542,1.532c-0.002,0.719,0.175,1.431,0.531,2.151
				c0.362,0.724,0.911,1.298,1.639,1.718c0.734,0.424,1.284,0.484,1.649,0.181c0.359-0.307,0.539-0.813,0.541-1.532
				c0.002-0.712-0.175-1.424-0.531-2.151C110.876,113.62,110.327,113.046,109.593,112.622"/>
			<path fill="#030303" d="M114.892,115.719c-0.332-0.192-0.6-0.244-0.812-0.16c-0.128,0.044-0.282,0.175-0.455,0.406l0.002-0.858
				l-1.066-0.616l-0.014,4.908l1.124,0.649l0.007-2.348c0.001-0.389,0.047-0.656,0.137-0.796c0.154-0.242,0.455-0.237,0.902,0.021
				l0.134,0.077c0.057,0.04,0.121,0.085,0.191,0.133l0.004-1.313l-0.096-0.063L114.892,115.719"/>
			<polyline fill="#030303" points="116.787,115.225 115.688,114.591 115.67,121.201 116.768,121.836 116.772,120.295 
				117.24,120.006 118.268,122.702 119.622,123.483 118.041,119.513 119.578,118.564 118.193,117.764 116.777,118.805 
				116.787,115.225 			"/>
		</g>
	</g>
</g>
<linearGradient id="SVGID_24_" gradientUnits="userSpaceOnUse" x1="0" y1="253.4909" x2="96.5279" y2="253.4909">
	<stop  offset="0.3729" style="stop-color:#406E82"/>
	<stop  offset="0.4778" style="stop-color:#325261"/>
	<stop  offset="0.5913" style="stop-color:#213843"/>
</linearGradient>
<path fill="url(#SVGID_24_)" d="M96.527,239.064c-0.015-0.914-0.627-1.825-1.835-2.523l-42.181-24.353
	c-2.437-1.406-6.374-1.406-8.796,0.001L1.809,236.543c-1.276,0.742-1.876,1.726-1.801,2.697H0v28.949h0.025
	c0.119,0.821,0.723,1.624,1.81,2.252l42.182,24.353c2.437,1.407,6.375,1.407,8.796,0L94.72,270.44
	c1.158-0.674,1.758-1.546,1.804-2.429h0.005L96.527,239.064L96.527,239.064z"/>
<g>
	<g>
		<linearGradient id="SVGID_25_" gradientUnits="userSpaceOnUse" x1="7.723540e-04" y1="238.6506" x2="96.5281" y2="238.6506">
			<stop  offset="0" style="stop-color:#60A9D0"/>
			<stop  offset="0.1757" style="stop-color:#5CA0C4"/>
			<stop  offset="1" style="stop-color:#497D97"/>
		</linearGradient>
		<path fill="url(#SVGID_25_)" d="M94.692,236.102L52.511,211.75c-2.437-1.407-6.374-1.407-8.796,0.001L1.809,236.105
			c-2.422,1.407-2.409,3.687,0.027,5.094l42.182,24.353c2.437,1.406,6.375,1.406,8.796,0l41.907-24.354
			C97.142,239.79,97.129,237.51,94.692,236.102"/>
	</g>
</g>
<path fill-rule="evenodd" clip-rule="evenodd" fill="#78A344" d="M57.718,268.456"/>
<linearGradient id="SVGID_26_" gradientUnits="userSpaceOnUse" x1="0" y1="218.0495" x2="96.5279" y2="218.0495">
	<stop  offset="0.3729" style="stop-color:#406E82"/>
	<stop  offset="0.4778" style="stop-color:#325261"/>
	<stop  offset="0.5913" style="stop-color:#213843"/>
</linearGradient>
<path fill="url(#SVGID_26_)" d="M96.527,203.623c-0.015-0.914-0.627-1.825-1.835-2.523l-42.181-24.353
	c-2.437-1.406-6.374-1.406-8.796,0.001L1.809,201.101c-1.276,0.742-1.876,1.726-1.801,2.697H0v28.949h0.025
	c0.119,0.821,0.723,1.624,1.81,2.252l42.182,24.353c2.437,1.407,6.375,1.407,8.796,0l41.907-24.353
	c1.158-0.674,1.758-1.546,1.804-2.428h0.005L96.527,203.623L96.527,203.623z"/>
<g>
	<g>
		<linearGradient id="SVGID_27_" gradientUnits="userSpaceOnUse" x1="7.723540e-04" y1="203.2092" x2="96.5281" y2="203.2092">
			<stop  offset="0" style="stop-color:#60A9D0"/>
			<stop  offset="0.1757" style="stop-color:#5CA0C4"/>
			<stop  offset="1" style="stop-color:#497D97"/>
		</linearGradient>
		<path fill="url(#SVGID_27_)" d="M94.692,200.661l-42.181-24.353c-2.437-1.407-6.374-1.407-8.796,0.001L1.809,200.664
			c-2.422,1.407-2.409,3.687,0.027,5.094l42.182,24.353c2.437,1.406,6.375,1.406,8.796,0l41.907-24.354
			C97.142,204.348,97.129,202.069,94.692,200.661"/>
	</g>
</g>
<g>
	<g enable-background="new    ">
		<defs>
			<polygon id="SVGID_28_" enable-background="new    " points="3.792,263.996 3.811,257.21 26.981,270.588 26.961,277.374 			"/>
		</defs>
		<clipPath id="SVGID_29_">
			<use xlink:href="#SVGID_28_"  overflow="visible"/>
		</clipPath>
		<g clip-path="url(#SVGID_29_)">
			<path fill="#FFFFFF" d="M9.397,260.436l-1.737-1.003l-1.055,4.616l-1.039-5.825l-1.756-1.014l-0.019,6.632l1.124,0.649
				l0.013-4.49c0-0.125,0.001-0.308,0.002-0.543c-0.006-0.231-0.005-0.415-0.005-0.539l1.07,6.195l1.175,0.678l1.107-4.938
				c0,0.125-0.001,0.308-0.002,0.536c-0.007,0.231-0.008,0.414-0.008,0.539l-0.013,4.49l1.124,0.649L9.397,260.436"/>
			<path fill="#FFFFFF" d="M11.986,267.794c-0.153-0.088-0.281-0.214-0.389-0.372c-0.108-0.158-0.159-0.349-0.158-0.569
				c0.001-0.242,0.084-0.378,0.263-0.392c0.102-0.007,0.275,0.034,0.511,0.119l0.256,0.096c0.128,0.044,0.23,0.074,0.3,0.085
				c0.07,0.004,0.147,0.011,0.217,0.001l-0.001,0.477c-0.008,0.422-0.117,0.66-0.322,0.703
				C12.459,267.986,12.228,267.934,11.986,267.794 M12.311,263.727c-0.721-0.417-1.233-0.491-1.534-0.232
				c-0.186,0.165-0.289,0.458-0.316,0.876l1.079,0.623c0.026-0.176,0.078-0.293,0.161-0.363c0.109-0.084,0.301-0.047,0.569,0.108
				c0.236,0.136,0.415,0.276,0.542,0.423c0.121,0.151,0.178,0.323,0.178,0.521c0,0.169-0.077,0.242-0.237,0.23
				c-0.09-0.008-0.236-0.056-0.447-0.148l-0.383-0.162c-0.434-0.192-0.76-0.27-0.984-0.26c-0.409,0.036-0.615,0.358-0.617,0.959
				c-0.001,0.462,0.125,0.895,0.374,1.296c0.255,0.404,0.574,0.713,0.963,0.938c0.306,0.177,0.581,0.255,0.818,0.23
				c0.205-0.014,0.384-0.072,0.538-0.182c0.012,0.125,0.019,0.224,0.031,0.319c0.013,0.095,0.038,0.198,0.069,0.319l1.219,0.704
				l0.001-0.191c-0.076-0.081-0.134-0.165-0.166-0.243c-0.038-0.081-0.057-0.209-0.069-0.385c0.001-0.22-0.005-0.415-0.005-0.569
				l0.006-2.252c0.002-0.587-0.176-1.094-0.546-1.52C13.191,264.346,12.777,263.996,12.311,263.727"/>
			<path fill="#FFFFFF" d="M17.648,266.809c-0.351-0.203-0.645-0.27-0.876-0.204c-0.128,0.036-0.263,0.142-0.404,0.311l0.002-0.719
				l-1.085-0.627l-0.014,4.901l1.117,0.645l0.007-2.656c0.001-0.301,0.04-0.528,0.111-0.686c0.141-0.286,0.404-0.318,0.78-0.1
				c0.3,0.173,0.51,0.42,0.618,0.732c0.057,0.173,0.088,0.389,0.088,0.646l-0.008,2.986l1.143,0.66l0.009-3.302
				c0.002-0.616-0.137-1.138-0.418-1.564C18.446,267.402,18.082,267.059,17.648,266.809"/>
			<path fill="#FFFFFF" d="M21.648,267.913l-1.105-0.638l-0.004,1.365l-0.6-0.347l-0.003,0.917l0.6,0.347l-0.009,3.023
				c-0.001,0.301,0.056,0.561,0.183,0.782c0.174,0.315,0.492,0.603,0.944,0.864c0.044,0.025,0.088,0.05,0.134,0.075l0.53,0.284
				l0.003-0.961l-0.109-0.055l-0.109-0.055c-0.23-0.133-0.364-0.239-0.408-0.317c-0.045-0.07-0.063-0.206-0.063-0.411l0.007-2.59
				l0.69,0.398l0.003-0.917l-0.69-0.398L21.648,267.913"/>
			<path fill="#FFFFFF" d="M24.621,275.09c-0.153-0.088-0.287-0.217-0.395-0.375c-0.102-0.154-0.159-0.349-0.158-0.569
				c0.001-0.242,0.091-0.374,0.27-0.388c0.102-0.007,0.275,0.034,0.511,0.119l0.256,0.096c0.128,0.044,0.224,0.07,0.3,0.085
				c0.07,0.004,0.141,0.008,0.217,0.001l-0.001,0.477c-0.014,0.418-0.117,0.66-0.328,0.7
				C25.087,275.278,24.864,275.23,24.621,275.09 M24.939,271.019c-0.721-0.417-1.226-0.488-1.528-0.228
				c-0.186,0.165-0.289,0.458-0.316,0.876l1.079,0.623c0.026-0.176,0.078-0.293,0.161-0.363c0.109-0.084,0.294-0.051,0.562,0.104
				c0.243,0.14,0.421,0.28,0.542,0.423c0.121,0.151,0.185,0.327,0.184,0.525c0,0.169-0.077,0.242-0.244,0.227
				c-0.09-0.008-0.236-0.056-0.441-0.144l-0.383-0.162c-0.434-0.192-0.767-0.274-0.99-0.263c-0.409,0.036-0.615,0.358-0.617,0.959
				c-0.001,0.462,0.125,0.895,0.38,1.3c0.255,0.404,0.574,0.713,0.963,0.938c0.3,0.173,0.575,0.251,0.818,0.23
				c0.205-0.014,0.384-0.072,0.538-0.182c0.006,0.121,0.019,0.224,0.031,0.319c0.013,0.095,0.038,0.198,0.069,0.319l1.213,0.7
				l0.001-0.191c-0.07-0.077-0.127-0.162-0.166-0.243c-0.032-0.077-0.057-0.209-0.063-0.382c-0.006-0.224-0.005-0.415-0.005-0.569
				l0.006-2.252c0.002-0.587-0.182-1.097-0.546-1.52C25.827,271.641,25.412,271.291,24.939,271.019"/>
		</g>
	</g>
</g>
<g>
	<g enable-background="new    ">
		<defs>
			<polygon id="SVGID_30_" enable-background="new    " points="11.723,203.837 35.903,189.784 46.527,195.918 22.347,209.971 			
				"/>
		</defs>
		<clipPath id="SVGID_31_">
			<use xlink:href="#SVGID_30_"  overflow="visible"/>
		</clipPath>
		<g clip-path="url(#SVGID_31_)">
			<path fill="#FFFFFF" d="M46.527,195.918l-3.99-2.304c-0.209,0.122-0.597,0.273-1.149,0.453c-0.94,0.295-1.83,0.45-2.677,0.468
				c-1.241,0.018-2.438-0.188-3.612-0.616c-0.74-0.273-1.888-0.826-3.465-1.655l-3.235,1.88l5.727,3.307l-16.676,9.692l4.897,2.827
				L46.527,195.918"/>
		</g>
	</g>
</g>
<g>
	<path fill="#030303" d="M219.919,28.084h-2.2v0.883h2.021v0.722h-2.021v1.069h2.302v0.748h-3.15v-4.158h3.049V28.084z"/>
	<path fill="#030303" d="M223.362,27.455c0.153,0.066,0.283,0.163,0.39,0.291c0.088,0.105,0.158,0.222,0.209,0.35
		c0.052,0.128,0.077,0.273,0.077,0.437c0,0.198-0.05,0.392-0.149,0.583c-0.1,0.191-0.265,0.326-0.494,0.405
		c0.192,0.077,0.328,0.187,0.408,0.329s0.12,0.358,0.12,0.65v0.279c0,0.19,0.007,0.319,0.022,0.387
		c0.023,0.107,0.076,0.186,0.16,0.237v0.104h-0.959c-0.026-0.092-0.045-0.167-0.057-0.223c-0.022-0.117-0.034-0.236-0.036-0.358
		l-0.006-0.387c-0.004-0.265-0.05-0.442-0.138-0.53s-0.253-0.132-0.495-0.132h-0.849v1.63h-0.849v-4.158h1.989
		C222.991,27.353,223.21,27.389,223.362,27.455z M221.567,28.07v1.117h0.936c0.186,0,0.325-0.022,0.418-0.068
		c0.164-0.079,0.246-0.235,0.246-0.468c0-0.252-0.079-0.421-0.238-0.508c-0.089-0.049-0.223-0.073-0.401-0.073H221.567z"/>
	<path fill="#030303" d="M227.535,27.455c0.153,0.066,0.283,0.163,0.39,0.291c0.088,0.105,0.158,0.222,0.209,0.35
		c0.052,0.128,0.077,0.273,0.077,0.437c0,0.198-0.05,0.392-0.149,0.583c-0.1,0.191-0.265,0.326-0.494,0.405
		c0.192,0.077,0.328,0.187,0.408,0.329s0.12,0.358,0.12,0.65v0.279c0,0.19,0.007,0.319,0.022,0.387
		c0.023,0.107,0.076,0.186,0.16,0.237v0.104h-0.959c-0.026-0.092-0.045-0.167-0.057-0.223c-0.022-0.117-0.034-0.236-0.036-0.358
		l-0.006-0.387c-0.004-0.265-0.05-0.442-0.138-0.53s-0.253-0.132-0.495-0.132h-0.849v1.63h-0.849v-4.158h1.989
		C227.164,27.353,227.383,27.389,227.535,27.455z M225.739,28.07v1.117h0.936c0.186,0,0.325-0.022,0.418-0.068
		c0.164-0.079,0.246-0.235,0.246-0.468c0-0.252-0.079-0.421-0.238-0.508c-0.089-0.049-0.223-0.073-0.401-0.073H225.739z"/>
	<path fill="#030303" d="M232.244,31.137c-0.313,0.324-0.768,0.485-1.362,0.485c-0.594,0-1.049-0.162-1.362-0.485
		c-0.422-0.397-0.632-0.968-0.632-1.715c0-0.762,0.21-1.333,0.632-1.715c0.313-0.324,0.769-0.485,1.362-0.485
		c0.595,0,1.049,0.162,1.362,0.485c0.42,0.381,0.63,0.953,0.63,1.715C232.874,30.168,232.664,30.74,232.244,31.137z M231.701,30.505
		c0.202-0.254,0.304-0.615,0.304-1.083c0-0.466-0.102-0.827-0.304-1.082s-0.475-0.382-0.819-0.382c-0.344,0-0.618,0.127-0.823,0.381
		s-0.308,0.615-0.308,1.083s0.103,0.83,0.308,1.083s0.479,0.381,0.823,0.381C231.227,30.886,231.499,30.759,231.701,30.505z"/>
	<path fill="#030303" d="M236.201,27.455c0.153,0.066,0.283,0.163,0.39,0.291c0.088,0.105,0.158,0.222,0.209,0.35
		c0.052,0.128,0.077,0.273,0.077,0.437c0,0.198-0.05,0.392-0.149,0.583c-0.1,0.191-0.265,0.326-0.494,0.405
		c0.192,0.077,0.328,0.187,0.408,0.329s0.12,0.358,0.12,0.65v0.279c0,0.19,0.007,0.319,0.022,0.387
		c0.023,0.107,0.076,0.186,0.16,0.237v0.104h-0.959c-0.026-0.092-0.045-0.167-0.057-0.223c-0.022-0.117-0.034-0.236-0.036-0.358
		l-0.006-0.387c-0.004-0.265-0.05-0.442-0.138-0.53s-0.253-0.132-0.495-0.132h-0.849v1.63h-0.849v-4.158h1.989
		C235.83,27.353,236.049,27.389,236.201,27.455z M234.405,28.07v1.117h0.936c0.186,0,0.325-0.022,0.418-0.068
		c0.164-0.079,0.246-0.235,0.246-0.468c0-0.252-0.079-0.421-0.238-0.508c-0.089-0.049-0.223-0.073-0.401-0.073H234.405z"/>
</g>
<path opacity="0.45" fill="#3C6877" d="M67.035,184.694l-14.524-8.385c-1.405-0.811-3.309-1.152-5.135-1.027v9.554h19.658V184.694z"
	/>
<linearGradient id="SVGID_32_" gradientUnits="userSpaceOnUse" x1="47.3765" y1="94.4895" x2="47.3765" y2="184.8358">
	<stop  offset="0" style="stop-color:#F69322"/>
	<stop  offset="1" style="stop-color:#F16924"/>
</linearGradient>
<path fill="url(#SVGID_32_)" d="M32.295,112.009l0.138,47.655c-0.009,0.51-0.402,0.921-0.931,0.927h-6.24
	c-0.417,0-0.705,0.301-0.705,0.301c-0.438,0.439-0.438,1.15,0,1.588l22.026,22.026c0.438,0.439,1.151,0.439,1.588,0l22.025-22.026
	c0.438-0.438,0.438-1.149,0-1.588c-0.017-0.03-0.226-0.299-0.694-0.299l-6.52-0.002c-0.508-0.006-0.891-0.385-0.927-0.867
	L61.917,94.49"/>
<path fill="#FFFFFF" d="M57.206,156.899c0,0.669-0.542,1.211-1.211,1.211H37.355c-0.669,0-1.211-0.542-1.211-1.211v-9.153
	c0-0.669,0.542-1.211,1.211-1.211h18.639c0.669,0,1.211,0.542,1.211,1.211V156.899z"/>
<path fill="#FFFFFF" d="M57.206,142.275c0,0.669-0.542,1.211-1.211,1.211H37.355c-0.669,0-1.211-0.542-1.211-1.211v-9.153
	c0-0.669,0.542-1.212,1.211-1.212h18.639c0.669,0,1.211,0.542,1.211,1.212V142.275z"/>
<path fill="#FFFFFF" d="M57.206,127.652c0,0.669-0.542,1.211-1.211,1.211H37.355c-0.669,0-1.211-0.542-1.211-1.211v-9.153
	c0-0.669,0.542-1.211,1.211-1.211h18.639c0.669,0,1.211,0.542,1.211,1.211V127.652z"/>
<g>
	<path fill="#030303" d="M42.927,122.033h1.368l0.786,3.715l0.804-3.715h1.406l-1.496,5.158h-1.386l-0.81-3.757l-0.818,3.757H41.38
		l-1.448-5.158h1.448l0.805,3.701L42.927,122.033z"/>
	<path fill="#030303" d="M49.004,125.355c0.053,0.293,0.156,0.52,0.307,0.679s0.372,0.239,0.661,0.239
		c0.333,0,0.587-0.117,0.762-0.353s0.262-0.531,0.262-0.888c0-0.35-0.082-0.646-0.246-0.887s-0.418-0.362-0.765-0.362
		c-0.164,0-0.306,0.021-0.425,0.062c-0.21,0.076-0.37,0.216-0.477,0.421l-1.209-0.057l0.481-3.79h3.775v1.146h-2.802l-0.246,1.5
		c0.208-0.136,0.37-0.226,0.487-0.271c0.195-0.072,0.433-0.108,0.713-0.108c0.567,0,1.062,0.19,1.484,0.572s0.633,0.938,0.633,1.666
		c0,0.634-0.203,1.2-0.61,1.699c-0.407,0.498-1.015,0.747-1.825,0.747c-0.652,0-1.188-0.175-1.607-0.525
		c-0.419-0.35-0.652-0.847-0.7-1.49H49.004z"/>
	<path fill="#030303" d="M42.927,136.165h1.368l0.786,3.715l0.804-3.715h1.406l-1.496,5.158h-1.386l-0.81-3.757l-0.818,3.757H41.38
		l-1.448-5.158h1.448l0.805,3.701L42.927,136.165z"/>
	<path fill="#030303" d="M48.984,139.218c0,0.274,0.044,0.501,0.132,0.681c0.164,0.332,0.461,0.497,0.892,0.497
		c0.264,0,0.495-0.091,0.691-0.271c0.197-0.182,0.295-0.442,0.295-0.783c0-0.451-0.183-0.753-0.547-0.904
		c-0.208-0.085-0.535-0.128-0.981-0.128v-0.965c0.437-0.007,0.742-0.049,0.915-0.128c0.299-0.133,0.448-0.4,0.448-0.805
		c0-0.262-0.076-0.475-0.229-0.639c-0.153-0.164-0.368-0.246-0.645-0.246c-0.318,0-0.551,0.102-0.701,0.303
		c-0.149,0.202-0.221,0.472-0.215,0.81h-1.259c0.013-0.341,0.071-0.664,0.175-0.971c0.11-0.268,0.284-0.516,0.52-0.742
		c0.177-0.161,0.386-0.284,0.629-0.369s0.541-0.128,0.894-0.128c0.655,0,1.184,0.17,1.586,0.509
		c0.401,0.339,0.603,0.794,0.603,1.365c0,0.403-0.12,0.744-0.36,1.021c-0.151,0.174-0.309,0.292-0.473,0.355
		c0.123,0,0.3,0.105,0.53,0.317c0.344,0.318,0.516,0.754,0.516,1.306c0,0.58-0.201,1.091-0.603,1.53
		c-0.402,0.44-0.997,0.66-1.785,0.66c-0.971,0-1.646-0.316-2.023-0.951c-0.199-0.337-0.309-0.778-0.331-1.324H48.984z"/>
	<path fill="#030303" d="M42.927,150.298h1.368l0.786,3.715l0.804-3.715h1.406l-1.496,5.158h-1.386l-0.81-3.757l-0.818,3.757H41.38
		l-1.448-5.158h1.448l0.805,3.701L42.927,150.298z"/>
	<path fill="#030303" d="M48.076,150.724v-0.918c0.425-0.019,0.722-0.047,0.892-0.085c0.271-0.06,0.491-0.18,0.661-0.359
		c0.116-0.123,0.204-0.287,0.264-0.492c0.035-0.123,0.052-0.215,0.052-0.274h1.126v6.861H49.69v-4.732H48.076z"/>
</g>
<path opacity="0.45" fill="#3C6877" d="M209.981,90.204l-14.524-8.385c-1.405-0.811-3.309-1.152-5.135-1.027v9.554h19.658V90.204z"
	/>
<linearGradient id="SVGID_33_" gradientUnits="userSpaceOnUse" x1="190.3222" y1="6.530172e-10" x2="190.3222" y2="90.3463">
	<stop  offset="0" style="stop-color:#F69322"/>
	<stop  offset="1" style="stop-color:#F16924"/>
</linearGradient>
<path fill="url(#SVGID_33_)" d="M175.24,17.52l0.138,47.655c-0.009,0.51-0.402,0.921-0.931,0.927h-6.24
	c-0.417,0-0.705,0.3-0.705,0.3c-0.438,0.439-0.438,1.15,0,1.588l22.027,22.026c0.438,0.439,1.151,0.439,1.588,0l22.025-22.026
	c0.439-0.438,0.439-1.149,0-1.588c-0.017-0.03-0.226-0.299-0.695-0.299l-6.52-0.002c-0.507-0.007-0.891-0.385-0.927-0.867L204.863,0
	"/>
<path fill="#FFFFFF" d="M200.151,62.41c0,0.669-0.542,1.211-1.212,1.211h-18.639c-0.669,0-1.212-0.542-1.212-1.211v-9.153
	c0-0.669,0.542-1.211,1.212-1.211h18.639c0.669,0,1.212,0.542,1.212,1.211V62.41z"/>
<path fill="#FFFFFF" d="M200.151,47.786c0,0.669-0.542,1.211-1.212,1.211h-18.639c-0.669,0-1.212-0.542-1.212-1.211v-9.153
	c0-0.669,0.542-1.211,1.212-1.211h18.639c0.669,0,1.212,0.542,1.212,1.211V47.786z"/>
<path fill="#D12028" d="M213.471,33.162c0,0.669-0.542,1.212-1.211,1.212H193.62c-0.669,0-1.211-0.542-1.211-1.212V24.01
	c0-0.669,0.542-1.211,1.211-1.211h18.639c0.669,0,1.211,0.542,1.211,1.211V33.162z"/>
<path fill="#D12028" d="M200.151,33.162c0,0.669-0.542,1.212-1.212,1.212h-18.639c-0.669,0-1.212-0.542-1.212-1.212V24.01
	c0-0.669,0.542-1.211,1.212-1.211h18.639c0.669,0,1.212,0.542,1.212,1.211V33.162z"/>
<g>
	<g>
		<path fill="#FFFFFF" d="M185.873,27.14h1.367l0.786,3.714l0.805-3.714h1.405l-1.495,5.158h-1.387l-0.81-3.757l-0.818,3.757h-1.4
			l-1.448-5.158h1.448l0.804,3.7L185.873,27.14z"/>
		<path fill="#FFFFFF" d="M193.903,27.163c0-0.11-0.043-0.232-0.128-0.364c-0.145-0.214-0.364-0.322-0.657-0.322
			c-0.438,0-0.751,0.246-0.938,0.738c-0.101,0.271-0.17,0.672-0.208,1.202c0.167-0.199,0.361-0.344,0.582-0.435
			c0.221-0.092,0.474-0.137,0.757-0.137c0.609,0,1.108,0.207,1.498,0.62c0.39,0.414,0.584,0.942,0.584,1.585
			c0,0.64-0.19,1.205-0.572,1.694c-0.382,0.489-0.975,0.733-1.779,0.733c-0.864,0-1.502-0.361-1.911-1.083
			c-0.319-0.564-0.479-1.293-0.479-2.186c0-0.524,0.022-0.95,0.066-1.278c0.079-0.583,0.231-1.069,0.459-1.458
			c0.195-0.331,0.452-0.598,0.769-0.8c0.317-0.202,0.696-0.303,1.139-0.303c0.637,0,1.145,0.163,1.523,0.49s0.592,0.761,0.639,1.304
			H193.903z M192.304,31.03c0.199,0.233,0.451,0.35,0.758,0.35c0.299,0,0.535-0.113,0.707-0.338s0.258-0.518,0.258-0.878
			c0-0.4-0.098-0.708-0.293-0.92c-0.196-0.213-0.436-0.319-0.72-0.319c-0.23,0-0.434,0.069-0.61,0.208
			c-0.265,0.205-0.397,0.536-0.397,0.994C192.006,30.495,192.106,30.796,192.304,31.03z"/>
		<path fill="#030303" d="M185.873,41.273h1.367l0.786,3.714l0.805-3.714h1.405l-1.495,5.158h-1.387l-0.81-3.757l-0.818,3.757h-1.4
			l-1.448-5.158h1.448l0.804,3.7L185.873,41.273z"/>
		<path fill="#030303" d="M195.418,44.954h-0.776v1.477h-1.32v-1.477h-2.716v-1.178l2.521-4.164h1.515v4.287h0.776V44.954z
			 M193.321,43.899v-2.955l-1.713,2.955H193.321z"/>
		<path fill="#030303" d="M185.873,55.406h1.367l0.786,3.714l0.805-3.714h1.405l-1.495,5.158h-1.387l-0.81-3.757l-0.818,3.757h-1.4
			l-1.448-5.158h1.448l0.804,3.7L185.873,55.406z"/>
		<path fill="#030303" d="M190.97,59.215c0.192-0.458,0.646-0.942,1.362-1.453c0.622-0.445,1.024-0.764,1.207-0.956
			c0.28-0.3,0.421-0.627,0.421-0.984c0-0.29-0.08-0.531-0.241-0.724s-0.392-0.289-0.69-0.289c-0.41,0-0.689,0.153-0.838,0.459
			c-0.085,0.176-0.136,0.457-0.151,0.842h-1.311c0.021-0.584,0.128-1.056,0.317-1.415c0.359-0.685,0.999-1.027,1.918-1.027
			c0.727,0,1.305,0.201,1.733,0.604c0.43,0.402,0.645,0.935,0.645,1.597c0,0.508-0.151,0.959-0.455,1.354
			c-0.199,0.262-0.526,0.554-0.981,0.875l-0.54,0.383c-0.339,0.24-0.57,0.413-0.694,0.521c-0.125,0.107-0.229,0.232-0.314,0.374
			h2.995v1.188h-4.699C190.665,60.072,190.771,59.622,190.97,59.215z"/>
	</g>
</g>
<path fill-rule="evenodd" clip-rule="evenodd" fill="#FFFFFF" d="M206.464,30.708c0.548,0.95,0.104,1.72-0.993,1.72l-2.907,0
	l-2.907,0c-1.097,0-1.542-0.77-0.993-1.72l1.454-2.518l1.454-2.518c0.549-0.95,1.438-0.95,1.986,0l1.454,2.518L206.464,30.708z
	 M201.972,27.399l0.196,2.688h0.764l0.186-2.688H201.972z M202.089,31.228h0.933v-0.79h-0.933V31.228z"/>
<path fill="#D12028" d="M213.49,25.039l-0.043-10.313c0.003-0.159,0.125-0.286,0.29-0.289h1.942c0.13,0,0.219-0.093,0.219-0.093
	c0.136-0.137,0.136-0.358,0-0.494l-6.854-6.854c-0.136-0.136-0.358-0.136-0.494,0l-6.854,6.854c-0.137,0.136-0.137,0.358,0,0.494
	c0.005,0.009,0.07,0.093,0.216,0.093l2.029,0.001c0.158,0.002,0.277,0.12,0.288,0.27l0.043,10.313"/>
<g>
	<polyline opacity="0.902" fill="#838383" points="86.439,268.712 86.153,268.547 86.147,270.677 86.433,270.842 86.439,268.712 	
		"/>
	<polyline opacity="0.902" fill="#838383" points="86.449,265.267 86.162,265.101 86.154,268.218 86.44,268.383 86.449,265.267 	"/>
	<polyline opacity="0.902" fill="#838383" points="120.695,288.489 120.408,288.324 120.402,290.454 120.689,290.619 
		120.695,288.489 	"/>
	<polyline opacity="0.902" fill="#838383" points="120.704,285.044 120.418,284.879 120.409,287.995 120.695,288.16 
		120.704,285.044 	"/>
	<polyline opacity="0.902" fill="#838383" points="130.091,307.751 129.805,307.586 129.799,309.716 130.085,309.881 
		130.091,307.751 	"/>
	<polyline opacity="0.902" fill="#838383" points="130.103,303.533 129.817,303.367 129.806,307.257 130.092,307.422 
		130.103,303.533 	"/>
	<linearGradient id="SVGID_34_" gradientUnits="userSpaceOnUse" x1="82.0948" y1="270.5602" x2="89.66" y2="278.1254">
		<stop  offset="0" style="stop-color:#60A9D0"/>
		<stop  offset="0.1757" style="stop-color:#5CA0C4"/>
		<stop  offset="1" style="stop-color:#497D97"/>
	</linearGradient>
	<polyline fill="url(#SVGID_34_)" points="89.075,272.368 86.433,270.842 86.147,270.677 83.504,269.151 83.481,277.12 
		87.65,279.527 89.057,278.728 89.075,272.368 	"/>
	<polyline opacity="0.902" fill="#838383" points="86.154,268.218 77.143,263.016 77.136,265.474 77.422,265.64 77.428,263.51 
		86.153,268.547 86.154,268.218 	"/>
	<polyline opacity="0.902" fill="#838383" points="95.45,273.585 86.44,268.383 86.439,268.712 95.161,273.747 95.155,275.877 
		95.443,276.044 95.45,273.585 	"/>
	<polyline opacity="0.9922" fill="#838383" points="86.44,268.383 86.154,268.218 86.153,268.547 86.439,268.712 86.44,268.383 	"/>
	<path opacity="0.902" fill="#838383" d="M120.748,269.746l-34.354-19.834l-0.024,8.39c0.091,0.108,0.169,0.249,0.198,0.375
		l0.087,0.345l0.024-8.615l33.781,19.504l-0.023,8.264c0.008,0.023,0.015,0.047,0.021,0.07l0.25,0.993l0.013,0.007L120.748,269.746"
		/>
	<polyline opacity="0.902" fill="#838383" points="120.409,287.995 111.401,282.794 111.394,285.253 111.681,285.419 
		111.687,283.289 120.408,288.324 120.409,287.995 	"/>
	<polyline opacity="0.902" fill="#838383" points="129.706,293.363 120.695,288.16 120.695,288.489 129.419,293.526 
		129.411,296.163 129.698,296.328 129.706,293.363 	"/>
	<polyline opacity="0.9922" fill="#838383" points="120.695,288.16 120.409,287.995 120.408,288.324 120.695,288.489 
		120.695,288.16 	"/>
	<polyline opacity="0.902" fill="#838383" points="129.806,307.257 121.231,302.306 121.224,304.765 121.51,304.931 
		121.517,302.801 129.805,307.586 129.806,307.257 	"/>
	<polyline opacity="0.902" fill="#838383" points="139.536,312.875 130.092,307.422 130.091,307.751 139.249,313.038 
		139.243,315.168 139.529,315.333 139.536,312.875 	"/>
	<polyline opacity="0.9922" fill="#838383" points="130.092,307.422 129.806,307.257 129.805,307.586 130.091,307.751 
		130.092,307.422 	"/>
	<linearGradient id="SVGID_35_" gradientUnits="userSpaceOnUse" x1="91.1031" y1="275.7607" x2="98.6703" y2="283.3279">
		<stop  offset="0" style="stop-color:#60A9D0"/>
		<stop  offset="0.1757" style="stop-color:#5CA0C4"/>
		<stop  offset="1" style="stop-color:#497D97"/>
	</linearGradient>
	<polyline fill="url(#SVGID_35_)" points="98.086,277.57 95.443,276.044 95.155,275.877 92.512,274.352 92.489,282.321 
		96.661,284.729 98.068,283.93 98.086,277.57 	"/>
	<linearGradient id="SVGID_36_" gradientUnits="userSpaceOnUse" x1="73.0843" y1="265.3579" x2="80.6494" y2="272.9231">
		<stop  offset="0" style="stop-color:#60A9D0"/>
		<stop  offset="0.1757" style="stop-color:#5CA0C4"/>
		<stop  offset="1" style="stop-color:#497D97"/>
	</linearGradient>
	<polyline fill="url(#SVGID_36_)" points="80.065,267.165 77.422,265.64 77.136,265.474 74.493,263.949 74.471,271.918 
		78.64,274.325 80.047,273.526 80.065,267.165 	"/>
	<linearGradient id="SVGID_37_" gradientUnits="userSpaceOnUse" x1="135.191" y1="315.0518" x2="142.7562" y2="322.617">
		<stop  offset="0" style="stop-color:#60A9D0"/>
		<stop  offset="0.1757" style="stop-color:#5CA0C4"/>
		<stop  offset="1" style="stop-color:#497D97"/>
	</linearGradient>
	<polyline fill="url(#SVGID_37_)" points="142.172,316.859 139.529,315.333 139.243,315.168 136.6,313.643 136.578,321.612 
		140.747,324.018 142.154,323.22 142.172,316.859 	"/>
	<linearGradient id="SVGID_38_" gradientUnits="userSpaceOnUse" x1="126.1807" y1="309.8493" x2="133.7479" y2="317.4165">
		<stop  offset="0" style="stop-color:#60A9D0"/>
		<stop  offset="0.1757" style="stop-color:#5CA0C4"/>
		<stop  offset="1" style="stop-color:#497D97"/>
	</linearGradient>
	<polyline fill="url(#SVGID_38_)" points="133.164,311.659 130.085,309.881 129.799,309.716 127.59,308.44 127.567,316.409 
		131.739,318.818 133.146,318.019 133.164,311.659 	"/>
	<linearGradient id="SVGID_39_" gradientUnits="userSpaceOnUse" x1="117.1724" y1="304.6488" x2="124.7376" y2="312.214">
		<stop  offset="0" style="stop-color:#60A9D0"/>
		<stop  offset="0.1757" style="stop-color:#5CA0C4"/>
		<stop  offset="1" style="stop-color:#497D97"/>
	</linearGradient>
	<polyline fill="url(#SVGID_39_)" points="124.153,306.456 121.51,304.931 121.224,304.765 118.582,303.24 118.559,311.209 
		122.728,313.616 124.135,312.817 124.153,306.456 	"/>
	<linearGradient id="SVGID_40_" gradientUnits="userSpaceOnUse" x1="125.3896" y1="295.7874" x2="134.8385" y2="305.2363">
		<stop  offset="0" style="stop-color:#60A9D0"/>
		<stop  offset="0.1757" style="stop-color:#5CA0C4"/>
		<stop  offset="1" style="stop-color:#497D97"/>
	</linearGradient>
	<path fill="url(#SVGID_40_)" d="M129.798,296.386l-0.101-0.058l-0.286-0.165l-2.529-1.46c-0.281-0.162-0.506-0.034-0.507,0.289
		l-0.016,5.798c-0.001,0.323,0.223,0.71,0.504,0.872l2.955,1.706l0.286,0.165l3.824,2.207c0.281,0.162,0.506,0.034,0.507-0.289
		l0.013-4.639c0.001-0.323-0.223-0.71-0.504-0.872l-3.532-2.039l-0.25-0.993C130.115,296.709,129.948,296.473,129.798,296.386"/>
	<linearGradient id="SVGID_41_" gradientUnits="userSpaceOnUse" x1="81.7968" y1="257.5569" x2="91.2458" y2="267.0059">
		<stop  offset="0" style="stop-color:#60A9D0"/>
		<stop  offset="0.1757" style="stop-color:#5CA0C4"/>
		<stop  offset="1" style="stop-color:#497D97"/>
	</linearGradient>
	<path fill="url(#SVGID_41_)" d="M86.205,258.156l-2.916-1.683c-0.281-0.162-0.506-0.034-0.507,0.289l-0.016,5.798
		c-0.001,0.323,0.223,0.71,0.504,0.872l2.893,1.67l0.286,0.165l3.885,2.243c0.281,0.162,0.506,0.034,0.507-0.289l0.013-4.639
		c0.001-0.323-0.223-0.71-0.504-0.872l-3.532-2.039l-0.163-0.649l-0.087-0.345c-0.029-0.126-0.107-0.266-0.198-0.375
		C86.318,258.239,86.26,258.188,86.205,258.156"/>
	<linearGradient id="SVGID_42_" gradientUnits="userSpaceOnUse" x1="116.3507" y1="290.3374" x2="123.918" y2="297.9046">
		<stop  offset="0" style="stop-color:#60A9D0"/>
		<stop  offset="0.1757" style="stop-color:#5CA0C4"/>
		<stop  offset="1" style="stop-color:#497D97"/>
	</linearGradient>
	<polyline fill="url(#SVGID_42_)" points="123.334,292.147 120.689,290.619 120.402,290.454 117.76,288.928 117.737,296.898 
		121.909,299.306 123.316,298.507 123.334,292.147 	"/>
	<linearGradient id="SVGID_43_" gradientUnits="userSpaceOnUse" x1="106.9096" y1="284.8866" x2="114.4768" y2="292.4538">
		<stop  offset="0" style="stop-color:#60A9D0"/>
		<stop  offset="0.1757" style="stop-color:#5CA0C4"/>
		<stop  offset="1" style="stop-color:#497D97"/>
	</linearGradient>
	<polyline fill="url(#SVGID_43_)" points="113.893,286.696 111.681,285.419 111.394,285.253 108.319,283.478 108.296,291.447 
		112.465,293.854 113.875,293.056 113.893,286.696 	"/>
	<linearGradient id="SVGID_44_" gradientUnits="userSpaceOnUse" x1="115.6864" y1="277.1231" x2="125.1353" y2="286.572">
		<stop  offset="0" style="stop-color:#60A9D0"/>
		<stop  offset="0.1757" style="stop-color:#5CA0C4"/>
		<stop  offset="1" style="stop-color:#497D97"/>
	</linearGradient>
	<path fill="url(#SVGID_44_)" d="M120.095,277.722l-2.916-1.683c-0.281-0.162-0.506-0.034-0.507,0.289l-0.016,5.798
		c-0.001,0.323,0.223,0.71,0.504,0.872l3.259,1.882l0.286,0.165l3.519,2.032c0.281,0.162,0.506,0.034,0.507-0.289l0.013-4.639
		c0.001-0.323-0.223-0.71-0.504-0.872l-3.519-2.032l-0.013-0.007l-0.25-0.993c-0.005-0.023-0.012-0.046-0.021-0.07
		C120.374,277.992,120.227,277.798,120.095,277.722"/>
</g>
</svg>
